<svg xmlns="http://www.w3.org/2000/svg" width="682.667" height="682.667" viewBox="0 0 512 512"><path d="M0 143.7v143.8l5.6-9c3-5 11.6-18.9 19.1-31 7.4-12.1 18.8-30.6 25.3-41 36.9-59.7 47.5-77 75.1-122 6.7-11 15.6-25.5 19.7-32.3l7.5-12.2h38.5l5.6 9.2c10.1 16.6 16.6 27 30 48.3 7.3 11.5 20.4 32.5 29 46.5 8.7 14 17.3 27.7 19.1 30.5 1.8 2.7 8.9 14 15.7 25 6.9 11 16.2 25.8 20.6 32.9 4.5 7.2 8 13.1 7.8 13.3s-6.2-.1-13.2-.7c-7.1-.6-20.3-1.4-29.3-1.8l-16.5-.7-22.3-37c-12.3-20.4-24.5-40.6-27.2-45-2.6-4.4-10.3-17-17.1-28s-14.3-23.5-16.7-27.8c-2.4-4.2-4.6-7.7-4.8-7.7-.1 0-2.3 3.5-4.7 7.7-5.4 9.3-27.2 45.3-35.6 58.7-3.3 5.2-5.7 9.7-5.4 10.1.3.3 17.6.5 38.5.5 20.9-.1 38.1 0 38.2.2s4.8 7.7 10.4 16.8l10.2 16.5-58.9.3c-54.6.2-59 .3-60.4 2-.8.9-5.5 8.2-10.3 16.2-4.9 8-13.1 21.5-18.3 30s-12.4 20.3-16 26.2L52.7 293H0v219h512V293.1l-14.7-.3c-14.7-.3-14.8-.4-22.6-4.1-4.2-2-7.9-3.7-8.2-3.7s-3.9-1.6-8.1-3.5c-4.1-1.9-7.9-3.5-8.2-3.5-1.1-.1-9.1-6.9-30.7-26-10.9-9.6-27.8-24.4-37.4-32.9-40.5-35.4-47.1-41.1-59.6-52.1-7.2-6.3-16.3-14.3-20.3-17.8l-7.2-6.3-.2 19.3-.3 19.3-4.9-8c-2.8-4.4-7.9-12.7-11.4-18.5-3.6-5.8-9.2-14.8-12.5-20s-9.1-14.5-12.8-20.6l-6.9-11.3v-63l24.1-.3c13.2-.2 24.3-.1 24.5.1s.4 21.1.4 46.3V132l2.3-1.9c3.2-2.8 41.4-34.1 45.1-37.1 1.7-1.3 12.4-10.1 23.7-19.5 11.4-9.3 25.3-20.8 31-25.5l10.4-8.5 34 .3c32.3.3 33.9.4 31.8 2-1.1.9-10.6 8.6-21 17.1-10.3 8.5-24.1 19.8-30.7 25-6.5 5.3-19.8 16.1-29.6 24.1s-21.5 17.4-26 21-8.6 7-9.1 7.6c-1 1.2 23.5 23.3 77.6 69.9 22.9 19.7 27.5 23.8 53.1 46.5 7.1 6.4 15.5 13.7 18.7 16.4l5.7 4.8V0H0zm315 115.7c45.5 5.8 64.3 9.7 97.7 20.1 17.5 5.6 23.4 7.7 48.3 17.6 13.3 5.4 31.3 14.4 26.8 13.4-54.7-11.1-126.4-17.5-196.2-17.5-47.4 0-69 2-85 7.7-8.8 3.2-13.2 6.6-15.2 12-4.7 12.3 3.1 21.7 20.9 25.3 10 2.1 22 3.2 57.2 5.5 40.2 2.6 54.8 4.9 71.1 11 18.6 7 33.6 24.1 36.5 41.4 1.2 7.4 1.1 21.5-.1 28.2-1.3 6.6-6.8 18.5-11 23.8-7.6 9.4-23 19.1-38.1 24-29.1 9.5-79.2 12.6-122.9 7.6-17.1-1.9-44.9-7.5-57.3-11.5-7.7-2.5-9.4-3.4-9.1-4.8 1.8-7.5 9.6-37.8 9.9-38.1.2-.1 2.5.4 5.2 1.3 17 5.5 40.2 9.9 62.6 11.7 19.9 1.6 64 .7 76.2-1.5 12.7-2.4 22.7-7.4 26.2-13.3 3.3-5.8 4-12.1 1.9-17.7-4.7-12.3-17.3-15.6-71.6-18.6-24.3-1.4-45.7-3.5-55.5-5.5-25.2-5.2-41.4-14.1-50.7-27.8-5.6-8.2-7.8-15.2-8.5-26.8-1-17.6 3.9-30.9 15.8-42.9 12.6-12.7 41.4-22.9 73-25.9 14.3-1.4 78.2-.5 91.9 1.3"/></svg>