<?xml version="1.0" standalone="no"?>
<!DOCTYPE svg PUBLIC "-//W3C//DTD SVG 20010904//EN"
 "http://www.w3.org/TR/2001/REC-SVG-20010904/DTD/svg10.dtd">
<svg version="1.0" xmlns="http://www.w3.org/2000/svg"
 width="512.000000pt" height="512.000000pt" viewBox="0 0 512.000000 512.000000"
 preserveAspectRatio="xMidYMid meet">
<metadata>
Created by potrace 1.16, written by Peter Selinger 2001-2019
</metadata>
<g transform="translate(0.000000,512.000000) scale(0.100000,-0.100000)"
fill="#000000" stroke="none">
<path d="M0 3683 l0 -1438 56 90 c30 50 116 189 191 310 74 121 188 306 253
410 369 597 475 770 751 1220 67 110 156 255 197 323 l75 122 192 0 193 0 56
-92 c101 -166 166 -270 300 -483 73 -115 204 -325 290 -465 87 -140 173 -277
191 -305 18 -27 89 -140 157 -250 69 -110 162 -258 206 -329 45 -72 80 -131
78 -133 -2 -2 -62 1 -132 7 -71 6 -203 14 -293 18 l-165 7 -223 370 c-123 204
-245 406 -272 450 -26 44 -103 170 -171 280 -68 110 -143 235 -167 278 -24 42
-46 77 -48 77 -1 0 -23 -35 -47 -77 -54 -93 -272 -453 -356 -587 -33 -52 -57
-97 -54 -101 3 -3 176 -5 385 -5 209 1 381 0 382 -2 1 -2 48 -77 104 -168
l102 -165 -589 -3 c-546 -2 -590 -3 -604 -20 -8 -9 -55 -82 -103 -162 -49 -80
-131 -215 -183 -300 -52 -85 -124 -203 -160 -262 l-65 -108 -263 0 -264 0 0
-1095 0 -1095 2560 0 2560 0 0 1094 0 1095 -147 3 c-147 3 -148 4 -226 41 -42
20 -79 37 -82 37 -3 0 -39 16 -81 35 -41 19 -79 35 -82 35 -11 1 -91 69 -307
260 -109 96 -278 244 -374 329 -405 354 -471 411 -596 521 -72 63 -163 143
-203 178 l-72 63 -2 -193 -3 -193 -49 80 c-28 44 -79 127 -114 185 -36 58 -92
148 -125 200 -33 52 -91 145 -128 206 l-69 113 0 315 0 315 241 3 c132 2 243
1 245 -1 2 -2 4 -211 4 -463 l0 -458 23 19 c32 28 414 341 451 371 17 13 124
101 237 195 114 93 253 208 310 255 l104 85 340 -3 c323 -3 339 -4 318 -20
-11 -9 -106 -86 -210 -171 -103 -85 -241 -198 -307 -250 -65 -53 -198 -161
-296 -241 -98 -80 -215 -174 -260 -210 -45 -36 -86 -70 -91 -76 -10 -12 235
-233 776 -699 229 -197 275 -238 531 -465 71 -64 155 -137 187 -164 l57 -48 0
1371 0 1371 -2560 0 -2560 0 0 -1437z m3150 -1157 c455 -58 643 -97 977 -201
175 -56 234 -77 483 -176 133 -54 313 -144 268 -134 -547 111 -1264 175 -1962
175 -474 0 -690 -20 -850 -77 -88 -32 -132 -66 -152 -120 -47 -123 31 -217
209 -253 100 -21 220 -32 572 -55 402 -26 548 -49 711 -110 186 -70 336 -241
365 -414 12 -74 11 -215 -1 -282 -13 -66 -68 -185 -110 -238 -76 -94 -230
-191 -381 -240 -291 -95 -792 -126 -1229 -76 -171 19 -449 75 -573 115 -77 25
-94 34 -91 48 18 75 96 378 99 381 2 1 25 -4 52 -13 170 -55 402 -99 626 -117
199 -16 640 -7 762 15 127 24 227 74 262 133 33 58 40 121 19 177 -47 123
-173 156 -716 186 -243 14 -457 35 -555 55 -252 52 -414 141 -507 278 -56 82
-78 152 -85 268 -10 176 39 309 158 429 126 127 414 229 730 259 143 14 782 5
919 -13z"/>
</g>
</svg>
