<svg width="800" height="600" viewBox="0 0 800 600" xmlns="http://www.w3.org/2000/svg">
  <defs>
    <linearGradient id="passBg" x1="0%" y1="0%" x2="100%" y2="100%">
      <stop offset="0%" style="stop-color:#667eea;stop-opacity:1" />
      <stop offset="100%" style="stop-color:#764ba2;stop-opacity:1" />
    </linearGradient>
  </defs>

  <rect width="800" height="600" fill="url(#passBg)"/>

  <!-- Lock Icon -->
  <g transform="translate(350, 100)">
    <rect x="20" y="40" width="60" height="70" rx="8" fill="#fff" opacity="0.9"/>
    <path d="M 30 40 L 30 25 Q 30 10, 50 10 Q 70 10, 70 25 L 70 40" stroke="#fff" stroke-width="8" fill="none" opacity="0.9"/>
    <circle cx="50" cy="75" r="8" fill="#667eea"/>
  </g>

  <!-- Password Display -->
  <g transform="translate(200, 250)">
    <rect x="0" y="0" width="400" height="60" rx="10" fill="#fff" opacity="0.95"/>
    <text x="200" y="38" font-family="monospace" font-size="20" fill="#2d3748" text-anchor="middle" font-weight="600">aB7#xK9$mP2@qL5</text>
  </g>

  <!-- Options -->
  <g transform="translate(250, 350)">
    <rect x="0" y="0" width="20" height="20" rx="4" fill="#48bb78"/>
    <path d="M 4 10 L 8 14 L 16 6" stroke="#fff" stroke-width="2" fill="none"/>
    <text x="30" y="16" font-family="sans-serif" font-size="16" fill="#fff">Großbuchstaben</text>

    <rect x="0" y="35" width="20" height="20" rx="4" fill="#48bb78"/>
    <path d="M 4 45 L 8 49 L 16 41" stroke="#fff" stroke-width="2" fill="none"/>
    <text x="30" y="51" font-family="sans-serif" font-size="16" fill="#fff">Zahlen</text>

    <rect x="0" y="70" width="20" height="20" rx="4" fill="#48bb78"/>
    <path d="M 4 80 L 8 84 L 16 76" stroke="#fff" stroke-width="2" fill="none"/>
    <text x="30" y="86" font-family="sans-serif" font-size="16" fill="#fff">Sonderzeichen</text>
  </g>

  <!-- Generate Button -->
  <rect x="300" y="500" width="200" height="50" rx="25" fill="#48bb78"/>
  <text x="400" y="532" font-family="sans-serif" font-size="18" fill="#fff" text-anchor="middle" font-weight="600">Generieren</text>
</svg>