<svg xmlns="http://www.w3.org/2000/svg" aria-hidden="true" style="position:absolute;width:0;height:0;overflow:hidden">
  <!-- Minimal lokal gehostetes Icon Set ersetzt FontAwesome Subset -->
  <symbol id="icon-house" viewBox="0 0 576 512">
    <path fill="currentColor" d="M541 229.16 512 205.26V64a32 32 0 0 0-32-32h-64a32 32 0 0 0-32 32v24.6L314.52 43a35.93 35.93 0 0 0-45 0L35 229.16a16 16 0 0 0-2 22.59l21.4 25.76a16 16 0 0 0 22.59 2L96 264.86V456a32 32 0 0 0 32 32h128V344a16 16 0 0 1 16-16h64a16 16 0 0 1 16 16v144h128a32 32 0 0 0 32-32V264.86l19 14.65a16 16 0 0 0 22.59-2l21.4-25.76a16 16 0 0 0-2-22.59Z" />
  </symbol>
  <symbol id="icon-images" viewBox="0 0 576 512">
    <path fill="currentColor" d="M480 416V80a48 48 0 0 0-48-48H80a48 48 0 0 0-48 48v336H16a16 16 0 0 0 0 32h448a16 16 0 0 0 0-32ZM64 416V80a16 16 0 0 1 16-16h352a16 16 0 0 1 16 16v336Zm96-80 64-80 48 64 64-80 80 96H160Zm48-144a40 40 0 1 1-40-40 40 40 0 0 1 40 40Zm368-96v304a16 16 0 0 1-16 16h-16v-32h16V96H496V64h16a16 16 0 0 1 16 16Z" />
  </symbol>
  <symbol id="icon-user" viewBox="0 0 448 512">
    <path fill="currentColor" d="M224 256A128 128 0 1 0 96 128a128 128 0 0 0 128 128Zm89.6 32h-11.7a174.64 174.64 0 0 1-155.8 0h-11.7A134.4 134.4 0 0 0 0 422.4 57.6 57.6 0 0 0 57.6 480h332.8A57.6 57.6 0 0 0 448 422.4 134.4 134.4 0 0 0 313.6 288Z" />
  </symbol>
  <symbol id="icon-gamepad" viewBox="0 0 640 512">
    <path fill="currentColor" d="M480.1 96h-320C71.63 96 0 167.6 0 256s71.63 160 160 160c53.85 0 101.5-26.73 130.6-67.67h58.78C378.5 389.3 426.1 416 480 416c88.38 0 160-71.63 160-160S568.5 96 480.1 96zM224 288h-48v48h-32v-48H96v-32h48v-48h32v48h48v32zm208 32c-17.67 0-32-14.33-32-32 0-17.7 14.3-32 32-32s32 14.3 32 32c0 17.7-14.3 32-32 32zm64-96c-17.67 0-32-14.33-32-32 0-17.7 14.3-32 32-32s32 14.3 32 32c0 17.7-14.3 32-32 32z" />
  </symbol>
  <symbol id="icon-joystick" viewBox="0 0 384 512">
    <path fill="currentColor" d="M288 384H96a96 96 0 0 0-96 96 32 32 0 0 0 32 32h320a32 32 0 0 0 32-32 96 96 0 0 0-96-96zM192 320a64 64 0 0 0 64-64c0-23.56-12.94-43.81-32-54.53V112a32 32 0 0 0-64 0v89.47C140.94 212.2 128 232.44 128 256a64 64 0 0 0 64 64z" />
  </symbol>
  <symbol id="icon-cloud-sun" viewBox="0 0 640 512">
    <path fill="currentColor" d="M399.1 192c0-53 43-96 96-96 52.1 0 96 43 96 96s-43.9 96-96 96c-53 0-96-43-96-96zM575.1 85.9 598.6 63.4c4.7-4.7 4.7-12.3 0-17l-11.3-11.3c-4.7-4.7-12.3-4.7-17 0L547 57.6c-5.9-3.4-12-6.3-18.3-8.7V16c0-6.6-5.4-12-12-12h-16c-6.6 0-12 5.4-12 12v32c-6.3 2.4-12.4 5.3-18.3 8.7l-23.3-23.5c-4.7-4.7-12.3-4.7-17 0L417 46.4c-4.7 4.7-4.7 12.3 0 17l22.5 22.5c-3.4 5.9-6.3 12-8.7 18.3h-32c-6.6 0-12 5.4-12 12v16c0 6.6 5.4 12 12 12h32c2.4 6.3 5.3 12.4 8.7 18.3L417 183.6c-4.7 4.7-4.7 12.3 0 17l11.3 11.3c4.7 4.7 12.3 4.7 17 0l23.3-23.3c5.9 3.4 12 6.3 18.3 8.7v32c0 6.6 5.4 12 12 12h16c6.6 0 12-5.4 12-12v-32c6.3-2.4 12.4-5.3 18.3-8.7l23.3 23.3c4.7 4.7 12.3 4.7 17 0l11.3-11.3c4.7-4.7 4.7-12.3 0-17l-22.5-22.5c3.4-5.9 6.3-12 8.7-18.3h32c6.6 0 12-5.4 12-12v-16c0-6.6-5.4-12-12-12h-32c-2.4-6.3-5.3-12.4-8.7-18.3zM160 224c0-70.7 57.3-128 128-128 61 0 112.7 42.9 125.5 100 2.5-.1 5-.4 7.5-.4 44.2 0 80 35.8 80 80s-35.8 80-80 80H176c-53 0-96-43-96-96 0-44.2 35.8-80 80-80z" />
  </symbol>
</svg>
