<svg width="800" height="420" viewBox="0 0 800 420" xmlns="http://www.w3.org/2000/svg">
  <defs>
    <linearGradient id="projectGrad" x1="0%" y1="0%" x2="100%" y2="100%">
      <stop offset="0%" style="stop-color:#1a1a2e;stop-opacity:1" />
      <stop offset="100%" style="stop-color:#16213e;stop-opacity:1" />
    </linearGradient>
    <linearGradient id="cardGrad" x1="0%" y1="0%" x2="100%" y2="100%">
      <stop offset="0%" style="stop-color:#0ea5e9;stop-opacity:1" />
      <stop offset="100%" style="stop-color:#06b6d4;stop-opacity:1" />
    </linearGradient>
  </defs>
  
  <rect width="800" height="420" fill="url(#projectGrad)"/>
  
  <!-- Project Cards Grid -->
  <g transform="translate(100, 80)">
    <!-- Card 1 -->
    <g>
      <rect x="0" y="0" width="160" height="100" rx="8" 
            fill="#1a1a2e" stroke="url(#cardGrad)" stroke-width="2" opacity="0.8"/>
      <rect x="10" y="10" width="140" height="50" rx="4" fill="#0ea5e9" opacity="0.3"/>
      <rect x="10" y="70" width="80" height="8" rx="4" fill="#0ea5e9" opacity="0.4"/>
      <rect x="10" y="82" width="60" height="6" rx="3" fill="#0ea5e9" opacity="0.3"/>
    </g>
    
    <!-- Card 2 -->
    <g transform="translate(180, 0)">
      <rect x="0" y="0" width="160" height="100" rx="8" 
            fill="#1a1a2e" stroke="#06b6d4" stroke-width="2" opacity="0.8"/>
      <rect x="10" y="10" width="140" height="50" rx="4" fill="#06b6d4" opacity="0.3"/>
      <rect x="10" y="70" width="90" height="8" rx="4" fill="#06b6d4" opacity="0.4"/>
      <rect x="10" y="82" width="70" height="6" rx="3" fill="#06b6d4" opacity="0.3"/>
    </g>
    
    <!-- Card 3 -->
    <g transform="translate(360, 0)">
      <rect x="0" y="0" width="160" height="100" rx="8" 
            fill="#1a1a2e" stroke="#0ea5e9" stroke-width="2" opacity="0.8"/>
      <rect x="10" y="10" width="140" height="50" rx="4" fill="#0ea5e9" opacity="0.3"/>
      <rect x="10" y="70" width="70" height="8" rx="4" fill="#0ea5e9" opacity="0.4"/>
      <rect x="10" y="82" width="80" height="6" rx="3" fill="#0ea5e9" opacity="0.3"/>
    </g>
    
    <!-- Card 4 -->
    <g transform="translate(0, 120)">
      <rect x="0" y="0" width="160" height="100" rx="8" 
            fill="#1a1a2e" stroke="#06b6d4" stroke-width="2" opacity="0.7"/>
      <rect x="10" y="10" width="140" height="50" rx="4" fill="#06b6d4" opacity="0.3"/>
      <rect x="10" y="70" width="85" height="8" rx="4" fill="#06b6d4" opacity="0.4"/>
      <rect x="10" y="82" width="65" height="6" rx="3" fill="#06b6d4" opacity="0.3"/>
    </g>
    
    <!-- Card 5 -->
    <g transform="translate(180, 120)">
      <rect x="0" y="0" width="160" height="100" rx="8" 
            fill="#1a1a2e" stroke="url(#cardGrad)" stroke-width="2" opacity="0.7"/>
      <rect x="10" y="10" width="140" height="50" rx="4" fill="#0ea5e9" opacity="0.3"/>
      <rect x="10" y="70" width="75" height="8" rx="4" fill="#0ea5e9" opacity="0.4"/>
      <rect x="10" y="82" width="90" height="6" rx="3" fill="#0ea5e9" opacity="0.3"/>
    </g>
    
    <!-- Card 6 -->
    <g transform="translate(360, 120)">
      <rect x="0" y="0" width="160" height="100" rx="8" 
            fill="#1a1a2e" stroke="#06b6d4" stroke-width="2" opacity="0.7"/>
      <rect x="10" y="10" width="140" height="50" rx="4" fill="#06b6d4" opacity="0.3"/>
      <rect x="10" y="70" width="95" height="8" rx="4" fill="#06b6d4" opacity="0.4"/>
      <rect x="10" y="82" width="55" height="6" rx="3" fill="#06b6d4" opacity="0.3"/>
    </g>
  </g>
  
  <text x="400" y="345" font-family="Arial, sans-serif" font-size="42" font-weight="bold" 
        fill="#ffffff" text-anchor="middle">Projekte</text>
  <text x="400" y="380" font-family="Arial, sans-serif" font-size="24" 
        fill="url(#cardGrad)" text-anchor="middle">Portfolio Showcase</text>
</svg>
